<svg xmlns="http://www.w3.org/2000/svg" width="393.361328125" height="412.01031494140625" viewBox="-95.52699279785156 -115.90593719482422 393.361328125 412.01031494140625"><title>Neo4j Graph Visualization</title><desc>Created using Neo4j (http://www.neo4j.com/)</desc><g class="layer relationships"><g class="relationship" transform="translate(98.66648573204289 -86.90593991993724) rotate(385.21386675021233)"><path class="outline" fill="#A5ABB6" stroke="none" d="M 24.018736134675446,-6.953439040707552 L 24.277555179777966,-5.987513214418485 A 107.79901956177113 107.79901956177113 0 0 1 39.55104841607378,-8.918598269335277 L 39.433914270318084,-9.911714371257958 A 108.79901956177113 108.79901956177113 0 0 0 24.018736134675446,-6.953439040707552 Z M 61.50646645544465,-10.260024555062273 L 61.42072605073076,-9.26370704392464 A 107.79901956177113 107.79901956177113 0 0 1 76.77909791740589,-6.816000189897323 L 76.0944598697222,-3.895166277525059 L 83.70848338755512,-5.705317064030753 L 77.69194864765082,-10.710445406393674 L 77.00731059996713,-7.78961149402141 A 108.79901956177113 108.79901956177113 0 0 0 61.50646645544465,-10.260024555062273"/><text text-anchor="middle" pointer-events="none" font-size="8px" fill="#000000" x="50.46922264446376" y="-7.147194156684108" font-family="sans-serif">road</text></g><g class="relationship" transform="translate(196.42079518977636 -40.87735299240386) rotate(410.4372789513516)"><path class="outline" fill="#A5ABB6" stroke="none" d="M 21.40063509461097,-12.933012701892217 L 21.90063509461097,-12.06698729810778 A 66.38212209502818 66.38212209502818 0 0 1 30.68007742960997,-16.30891864640892 L 30.31233355607774,-17.238845763703345 A 67.38212209502818 67.38212209502818 0 0 0 21.40063509461097,-12.933012701892217 Z M 76.16921794962194,-18.579074237991946 L 75.85641210213362,-17.6292571494022 A 66.38212209502818 66.38212209502818 0 0 1 84.86860938054376,-13.907310146516572 L 83.5229045899169,-11.226064425497341 L 91.34913352802644,-11.214206588557118 L 86.6628824347129,-17.48230444120888 L 85.31717764408604,-14.801058720189648 A 67.38212209502818 67.38212209502818 0 0 0 76.16921794962194,-18.579074237991946"/><text text-anchor="middle" pointer-events="none" font-size="8px" fill="#000000" x="53.137811419868925" y="-18.431958955686426" font-family="sans-serif">twowheeler</text></g><g class="relationship" transform="translate(268.8343312461554 46.771625624401025) rotate(498.93463012947757)"><path class="outline" fill="#A5ABB6" stroke="none" d="M 21.40063509461097,12.933012701892217 L 21.90063509461097,12.06698729810778 A 66.72512170690659 66.72512170690659 0 0 0 42.4746368258315,19.769462641396927 L 42.282976491686185,20.750923958166624 A 67.72512170690659 67.72512170690659 0 0 1 21.40063509461097,12.933012701892217 Z M 64.35011222771698,21.39407826298256 L 64.21593873270315,20.403120406544772 A 66.72512170690659 66.72512170690659 0 0 0 85.20361846103198,13.911974647024566 L 83.85747977681275,11.230946739141373 L 91.68370669346263,11.217822368493565 L 86.99847003999095,17.486678524202155 L 85.65233135577172,14.805650616318962 A 67.72512170690659 67.72512170690659 0 0 1 64.35011222771698,21.39407826298256"/><text text-anchor="middle" pointer-events="none" font-size="8px" fill="#000000" x="53.304728155237505" y="24.47792448384766" transform="rotate(180 53.304728155237505 21.47792448384766)" font-family="sans-serif">road</text></g><g class="relationship" transform="translate(182.8635194199886 121.67728843236767) rotate(474.2184980210105)"><path class="outline" fill="#A5ABB6" stroke="none" d="M 25 0.5 L 47.60005625552976 0.5 L 47.60005625552976 -0.5 L 25 -0.5 Z M 66.93599375552975 0.5 L 89.53605001105952 0.5 L 89.53605001105952 3.5 L 96.53605001105952 0 L 89.53605001105952 -3.5 L 89.53605001105952 -0.5 L 66.93599375552975 -0.5 Z"/><text text-anchor="middle" pointer-events="none" font-size="8px" fill="#000000" x="57.26802500552976" y="3" transform="rotate(180 57.26802500552976 0)" font-family="sans-serif">trek</text></g><g class="relationship" transform="translate(268.8343312461554 46.771625624401025) rotate(498.93463012947757)"><path class="outline" fill="#A5ABB6" stroke="none" d="M 25 0.5 L 30.280381087911273 0.5 L 30.280381087911273 -0.5 L 25 -0.5 Z M 76.74522483791128 0.5 L 82.02560592582255 0.5 L 82.02560592582255 3.5 L 89.02560592582255 0 L 82.02560592582255 -3.5 L 82.02560592582255 -0.5 L 76.74522483791128 -0.5 Z"/><text text-anchor="middle" pointer-events="none" font-size="8px" fill="#000000" x="53.51280296291127" y="3" transform="rotate(180 53.51280296291127 0)" font-family="sans-serif">twowheeler</text></g><g class="relationship" transform="translate(268.8343312461554 46.771625624401025) rotate(498.93463012947757)"><path class="outline" fill="#A5ABB6" stroke="none" d="M 21.40063509461097,-12.933012701892217 L 21.90063509461097,-12.06698729810778 A 66.72512170690659 66.72512170690659 0 0 1 43.78040487235758,-20.010990532294343 L 43.608313899992694,-20.996071593542865 A 67.72512170690659 67.72512170690659 0 0 0 21.40063509461097,-12.933012701892217 Z M 63.01274683020031,-21.561620503961635 L 62.89832029707905,-20.568188790899356 A 66.72512170690659 66.72512170690659 0 0 1 85.20361846103198,-13.911974647024566 L 83.85747977681275,-11.230946739141373 L 91.68370669346263,-11.217822368493565 L 86.99847003999095,-17.486678524202155 L 85.65233135577172,-14.805650616318962 A 67.72512170690659 67.72512170690659 0 0 0 63.01274683020031,-21.561620503961635"/><text text-anchor="middle" pointer-events="none" font-size="8px" fill="#000000" x="53.30472815523749" y="-18.47792448384766" transform="rotate(180 53.30472815523749 -21.47792448384766)" font-family="sans-serif">trek</text></g><g class="relationship" transform="translate(196.42079518977636 -40.87735299240386) rotate(410.4372789513516)"><path class="outline" fill="#A5ABB6" stroke="none" d="M 25 0.5 L 42.34056455992669 0.5 L 42.34056455992669 -0.5 L 25 -0.5 Z M 64.35228330992669 0.5 L 81.69284786985338 0.5 L 81.69284786985338 3.5 L 88.69284786985338 0 L 81.69284786985338 -3.5 L 81.69284786985338 -0.5 L 64.35228330992669 -0.5 Z"/><text text-anchor="middle" pointer-events="none" font-size="8px" fill="#000000" x="53.34642393492669" y="3" font-family="sans-serif">road</text></g><g class="relationship" transform="translate(196.42079518977636 -40.87735299240386) rotate(410.4372789513516)"><path class="outline" fill="#A5ABB6" stroke="none" d="M 21.40063509461097,12.933012701892217 L 21.90063509461097,12.06698729810778 A 66.38212209502818 66.38212209502818 0 0 0 43.61441556673361,19.960782707116522 L 43.44151840386555,20.945722589074904 A 67.38212209502818 67.38212209502818 0 0 1 21.40063509461097,12.933012701892217 Z M 62.84595139790081,21.512842967398996 L 62.73087257558589,20.519486604025502 A 66.38212209502818 66.38212209502818 0 0 0 84.86860938054376,13.907310146516572 L 83.5229045899169,11.226064425497341 L 91.34913352802644,11.214206588557118 L 86.6628824347129,17.48230444120888 L 85.31717764408604,14.801058720189648 A 67.38212209502818 67.38212209502818 0 0 1 62.84595139790081,21.512842967398996"/><text text-anchor="middle" pointer-events="none" font-size="8px" fill="#000000" x="53.13781141986893" y="24.431958955686426" font-family="sans-serif">trek</text></g><g class="relationship" transform="translate(98.66648573204289 -86.90593991993724) rotate(385.21386675021233)"><path class="outline" fill="#A5ABB6" stroke="none" d="M 24.018736134675446,6.953439040707552 L 24.277555179777966,5.987513214418485 A 107.79901956177113 107.79901956177113 0 0 0 40.874524690617434,9.066414410004256 L 40.769667801927,10.060901731639959 A 108.79901956177113 108.79901956177113 0 0 1 24.018736134675446,6.953439040707552 Z M 60.1666707535067,10.366991104842143 L 60.09324475849369,9.369690436409428 A 107.79901956177113 107.79901956177113 0 0 0 76.77909791740589,6.816000189897323 L 76.0944598697222,3.895166277525059 L 83.70848338755512,5.705317064030753 L 77.69194864765082,10.710445406393674 L 77.00731059996713,7.78961149402141 A 108.79901956177113 108.79901956177113 0 0 1 60.1666707535067,10.366991104842143"/><text text-anchor="middle" pointer-events="none" font-size="8px" fill="#000000" x="50.469222644463805" y="13.147194156684108" font-family="sans-serif">trek</text></g><g class="relationship" transform="translate(98.66648573204289 -86.90593991993724) rotate(448.15622309998855)"><path class="outline" fill="#A5ABB6" stroke="none" d="M 21.40063509461097,12.933012701892217 L 21.90063509461097,12.06698729810778 A 64.34514826762933 64.34514826762933 0 0 0 42.62944747834866,19.661791165440896 L 42.45159783376506,20.645848838507618 A 65.34514826762933 65.34514826762933 0 0 1 21.40063509461097,12.933012701892217 Z M 61.85595488227988,21.22247642281623 L 61.736852762838986,20.229594413136994 A 64.34514826762933 64.34514826762933 0 0 0 82.8800698723481,13.879076411932992 L 81.5369914234133,11.196514151703624 L 89.36322822103908,11.192320407790017 L 84.6708411375945,17.455826092238816 L 83.32776268865969,14.773263832009448 A 65.34514826762933 65.34514826762933 0 0 1 61.85595488227988,21.22247642281623"/><text text-anchor="middle" pointer-events="none" font-size="8px" fill="#000000" x="52.147095290041705" y="24.15899028735403" font-family="sans-serif">trek</text></g><g class="relationship" transform="translate(102.26094524135395 24.75413399838209) rotate(410.2526427074339)"><path class="outline" fill="#A5ABB6" stroke="none" d="M 25 0.5 L 49.86153392465332 0.5 L 49.86153392465332 -0.5 L 25 -0.5 Z M 69.19747142465332 0.5 L 94.05900534930664 0.5 L 94.05900534930664 3.5 L 101.05900534930664 0 L 94.05900534930664 -3.5 L 94.05900534930664 -0.5 L 69.19747142465332 -0.5 Z"/><text text-anchor="middle" pointer-events="none" font-size="8px" fill="#000000" x="59.52950267465332" y="3" font-family="sans-serif">trek</text></g><g class="relationship" transform="translate(102.26094524135395 24.75413399838209) rotate(517.8522739471189)"><path class="outline" fill="#A5ABB6" stroke="none" d="M 24.018736134675446,-6.953439040707552 L 24.277555179777966,-5.987513214418485 A 138.63969019197896 138.63969019197896 0 0 1 35.22031809533509,-8.44989156880925 L 35.04042856096938,-9.43357838656462 A 139.63969019197896 139.63969019197896 0 0 0 24.018736134675446,-6.953439040707552 Z M 81.45138117547006,-10.078835593616077 L 81.29890852433755,-9.090527903341126 A 138.63969019197896 138.63969019197896 0 0 1 92.30589812285967,-6.93331966946802 L 91.61030184729591,-4.015076050196004 L 99.23106594708834,-5.796635629697931 L 93.23335982361135,-10.824311161830707 L 92.5377635480476,-7.9060675425586915 A 139.63969019197896 139.63969019197896 0 0 0 81.45138117547006,-10.078835593616077"/><text text-anchor="middle" pointer-events="none" font-size="8px" fill="#000000" x="58.225858045769606" y="-8.198100418999502" transform="rotate(180 58.225858045769606 -11.198100418999502)" font-family="sans-serif">twowheeler</text></g><g class="relationship" transform="translate(-12.172688823230143 71.33188916511669) rotate(423.44678830886687)"><path class="outline" fill="#A5ABB6" stroke="none" d="M 24.018736134675446,-6.953439040707552 L 24.277555179777966,-5.987513214418485 A 113.13687057385748 113.13687057385748 0 0 1 28.884701952529408,-7.119021663818572 L 28.666604793664174,-8.094948725281114 A 114.13687057385748 114.13687057385748 0 0 0 24.018736134675446,-6.953439040707552 Z M 75.00595202757879,-8.809551879467179 L 74.81805113339657,-7.8273638862777375 A 113.13687057385748 113.13687057385748 0 0 1 79.45789706208294,-6.838454125586536 L 78.77116165187239,-3.918112625630931 L 86.38648313034777,-5.722795085087871 L 80.373544275697,-10.732242792194011 L 79.68680886548646,-7.811901292238406 A 114.13687057385748 114.13687057385748 0 0 0 75.00595202757879,-8.809551879467179"/><text text-anchor="middle" pointer-events="none" font-size="8px" fill="#000000" x="51.80733613240458" y="-7.3290490153059835" font-family="sans-serif">twowheeler</text></g><g class="relationship" transform="translate(37.32352597221946 170.37547889700951) rotate(393.00144126627123)"><path class="outline" fill="#A5ABB6" stroke="none" d="M 24.018736134675446,6.953439040707552 L 24.277555179777966,5.987513214418485 A 119.85090403885613 119.85090403885613 0 0 0 30.544217170557005,7.487332445172527 L 30.337685273732877,8.46577231332705 A 120.85090403885613 120.85090403885613 0 0 1 24.018736134675446,6.953439040707552 Z M 76.70112093642199,9.160815563208146 L 76.52401122103458,8.176624449290031 A 119.85090403885613 119.85090403885613 0 0 0 82.8328152147958,6.865326466405848 L 82.1435697630949,3.9455763559837878 L 89.76043971439742,5.743712097507442 L 83.751809150397,10.758326613635262 L 83.0625636986961,7.8385765032132015 A 120.85090403885613 120.85090403885613 0 0 1 76.70112093642199,9.160815563208146"/><text text-anchor="middle" pointer-events="none" font-size="8px" fill="#000000" x="53.493250690209095" y="13.557812433166475" font-family="sans-serif">twowheeler</text></g><g class="relationship" transform="translate(37.32352597221946 170.37547889700951) rotate(393.00144126627123)"><path class="outline" fill="#A5ABB6" stroke="none" d="M 24.018736134675446,-6.953439040707552 L 24.277555179777966,-5.987513214418485 A 119.85090403885613 119.85090403885613 0 0 1 43.89016800458778,-9.527251130708379 L 43.79499071907058,-10.522711468603148 A 120.85090403885613 120.85090403885613 0 0 0 24.018736134675446,-6.953439040707552 Z M 63.18820472082662,-10.813438898371004 L 63.12290977689719,-9.815572890182892 A 119.85090403885613 119.85090403885613 0 0 1 82.8328152147958,-6.865326466405848 L 82.1435697630949,-3.9455763559837878 L 89.76043971439742,-5.743712097507442 L 83.751809150397,-10.758326613635262 L 83.0625636986961,-7.8385765032132015 A 120.85090403885613 120.85090403885613 0 0 0 63.18820472082662,-10.813438898371004"/><text text-anchor="middle" pointer-events="none" font-size="8px" fill="#000000" x="53.49325069020907" y="-7.557812433166475" font-family="sans-serif">trek</text></g><g class="relationship" transform="translate(-12.172688823230143 71.33188916511669) rotate(423.44678830886687)"><path class="outline" fill="#A5ABB6" stroke="none" d="M 24.018736134675446,6.953439040707552 L 24.277555179777966,5.987513214418485 A 113.13687057385748 113.13687057385748 0 0 0 42.20867612523504,9.27171111222492 L 42.10834759568687,10.266665476082238 A 114.13687057385748 114.13687057385748 0 0 1 24.018736134675446,6.953439040707552 Z M 61.503636320450916,10.565761931392714 L 61.43403475968516,9.56818706064918 A 113.13687057385748 113.13687057385748 0 0 0 79.45789706208294,6.838454125586536 L 78.77116165187239,3.918112625630931 L 86.38648313034777,5.722795085087871 L 80.373544275697,10.732242792194011 L 79.68680886548646,7.811901292238406 A 114.13687057385748 114.13687057385748 0 0 1 61.503636320450916,10.565761931392714"/><text text-anchor="middle" pointer-events="none" font-size="8px" fill="#000000" x="51.807336132404636" y="13.329049015305984" font-family="sans-serif">trek</text></g><g class="relationship" transform="translate(102.26094524135395 24.75413399838209) rotate(517.8522739471189)"><path class="outline" fill="#A5ABB6" stroke="none" d="M 24.018736134675446,6.953439040707552 L 24.277555179777966,5.987513214418485 A 138.63969019197896 138.63969019197896 0 0 0 48.61291271145755,10.22982733103703 L 48.52962318101264,11.22635272164095 A 139.63969019197896 139.63969019197896 0 0 1 24.018736134675446,6.953439040707552 Z M 67.91755969308575,11.49590559783772 L 67.86200663167573,10.497449861528906 A 138.63969019197896 138.63969019197896 0 0 0 92.30589812285967,6.93331966946802 L 91.61030184729591,4.015076050196004 L 99.23106594708834,5.796635629697931 L 93.23335982361135,10.824311161830707 L 92.5377635480476,7.9060675425586915 A 139.63969019197896 139.63969019197896 0 0 1 67.91755969308575,11.49590559783772"/><text text-anchor="middle" pointer-events="none" font-size="8px" fill="#000000" x="58.225858045769606" y="14.198100418999502" transform="rotate(180 58.225858045769606 11.198100418999502)" font-family="sans-serif">trek</text></g><g class="relationship" transform="translate(98.66648573204289 -86.90593991993724) rotate(448.15622309998855)"><path class="outline" fill="#A5ABB6" stroke="none" d="M 25 0.5 L 41.35309748647525 0.5 L 41.35309748647525 -0.5 L 25 -0.5 Z M 63.36481623647525 0.5 L 79.7179137229505 0.5 L 79.7179137229505 3.5 L 86.7179137229505 0 L 79.7179137229505 -3.5 L 79.7179137229505 -0.5 L 63.36481623647525 -0.5 Z"/><text text-anchor="middle" pointer-events="none" font-size="8px" fill="#000000" x="52.35895686147525" y="3" font-family="sans-serif">road</text></g><g class="relationship" transform="translate(98.66648573204289 -86.90593991993724) rotate(448.15622309998855)"><path class="outline" fill="#A5ABB6" stroke="none" d="M 21.40063509461097,-12.933012701892217 L 21.90063509461097,-12.06698729810778 A 64.34514826762933 64.34514826762933 0 0 1 22.903622093817216,-12.634149443222668 L 22.419209702614612,-13.508989220124342 A 65.34514826762933 65.34514826762933 0 0 0 21.40063509461097,-12.933012701892217 Z M 82.27678373530738,-15.287740674282283 L 81.84517442299286,-14.385680032460797 A 64.34514826762933 64.34514826762933 0 0 1 82.8800698723481,-13.879076411932992 L 81.5369914234133,-11.196514151703624 L 89.36322822103908,-11.192320407790017 L 84.6708411375945,-17.455826092238816 L 83.32776268865969,-14.773263832009448 A 65.34514826762933 65.34514826762933 0 0 0 82.27678373530738,-15.287740674282283"/><text text-anchor="middle" pointer-events="none" font-size="8px" fill="#000000" x="52.147095290041705" y="-18.15899028735403" font-family="sans-serif">PublicTransport</text></g><g class="relationship" transform="translate(102.26094524135395 24.75413399838209) rotate(325.12265471304806)"><path class="outline" fill="#A5ABB6" stroke="none" d="M 25 0.5 L 44.22011674457615 0.5 L 44.22011674457615 -0.5 L 25 -0.5 Z M 63.55605424457615 0.5 L 82.7761709891523 0.5 L 82.7761709891523 3.5 L 89.7761709891523 0 L 82.7761709891523 -3.5 L 82.7761709891523 -0.5 L 63.55605424457615 -0.5 Z"/><text text-anchor="middle" pointer-events="none" font-size="8px" fill="#000000" x="53.88808549457615" y="3" font-family="sans-serif">trek</text></g><g class="relationship" transform="translate(-12.172688823230143 71.33188916511669) rotate(477.31333691488527)"><path class="outline" fill="#A5ABB6" stroke="none" d="M 24.018736134675446,-6.953439040707552 L 24.277555179777966,-5.987513214418485 A 128.53107009907643 128.53107009907643 0 0 1 32.699275781752654,-7.94306469129215 L 32.505979575567466,-8.924205138259055 A 129.53107009907643 129.53107009907643 0 0 0 24.018736134675446,-6.953439040707552 Z M 78.89439858516894,-9.595384799672985 L 78.72956898436341,-8.609062741368348 A 128.53107009907643 128.53107009907643 0 0 1 87.20434096078097,-6.897981380311758 L 86.51204538752172,-3.978952973590499 L 94.13078983867378,-5.7691297771603915 L 88.12740172512663,-10.790019255940104 L 87.43510615186739,-7.8709908492188445 A 129.53107009907643 129.53107009907643 0 0 0 78.89439858516894,-9.595384799672985"/><text text-anchor="middle" pointer-events="none" font-size="8px" fill="#000000" x="55.67712881688927" y="-7.853599469058963" transform="rotate(180 55.67712881688927 -10.853599469058963)" font-family="sans-serif">twowheeler</text></g><g class="relationship" transform="translate(-66.52699333456403 176.5813063121616) rotate(356.58022521553175)"><path class="outline" fill="#A5ABB6" stroke="none" d="M 21.40063509461097,12.933012701892217 L 21.90063509461097,12.06698729810778 A 56.39928649655758 56.39928649655758 0 0 0 38.80191196300363,18.479780566808593 L 38.601583783664424,19.45950941733951 A 57.39928649655758 57.39928649655758 0 0 1 21.40063509461097,12.933012701892217 Z M 58.00391107731193,20.07630694415608 L 57.86621541562638,19.08583235853918 A 56.39928649655758 56.39928649655758 0 0 0 75.14067818797889,13.759481523702487 L 73.80872517577451,11.071377884837405 L 81.63491218069814,11.099608435036457 L 76.91661553758472,17.34361970885593 L 75.58466252538034,14.655516069990846 A 57.39928649655758 57.39928649655758 0 0 1 58.00391107731193,20.07630694415608"/><text text-anchor="middle" pointer-events="none" font-size="8px" fill="#000000" x="48.29237053460806" y="23.094329609830574" font-family="sans-serif">trek</text></g><g class="relationship" transform="translate(-66.52699333456403 176.5813063121616) rotate(356.58022521553175)"><path class="outline" fill="#A5ABB6" stroke="none" d="M 25 0.5 L 37.51202854395357 0.5 L 37.51202854395357 -0.5 L 25 -0.5 Z M 59.52374729395357 0.5 L 72.03577583790714 0.5 L 72.03577583790714 3.5 L 79.03577583790714 0 L 72.03577583790714 -3.5 L 72.03577583790714 -0.5 L 59.52374729395357 -0.5 Z"/><text text-anchor="middle" pointer-events="none" font-size="8px" fill="#000000" x="48.51788791895357" y="3" font-family="sans-serif">road</text></g><g class="relationship" transform="translate(-66.52699333456403 176.5813063121616) rotate(356.58022521553175)"><path class="outline" fill="#A5ABB6" stroke="none" d="M 21.40063509461097,-12.933012701892217 L 21.90063509461097,-12.06698729810778 A 56.39928649655758 56.39928649655758 0 0 1 26.07315917108372,-14.249031491720856 L 25.647141030352937,-15.153746111790795 A 57.39928649655758 57.39928649655758 0 0 0 21.40063509461097,-12.933012701892217 Z M 71.20567980680065,-16.602046288228394 L 70.8379853152467,-15.672099644124074 A 56.39928649655758 56.39928649655758 0 0 1 75.14067818797889,-13.759481523702487 L 73.80872517577451,-11.071377884837405 L 81.63491218069814,-11.099608435036457 L 76.91661553758472,-17.34361970885593 L 75.58466252538034,-14.655516069990846 A 57.39928649655758 57.39928649655758 0 0 0 71.20567980680065,-16.602046288228394"/><text text-anchor="middle" pointer-events="none" font-size="8px" fill="#000000" x="48.29237053460804" y="-17.094329609830574" font-family="sans-serif">twowheeler</text></g><g class="relationship" transform="translate(-12.172688823230143 71.33188916511669) rotate(477.31333691488527)"><path class="outline" fill="#A5ABB6" stroke="none" d="M 24.018736134675446,6.953439040707552 L 24.277555179777966,5.987513214418485 A 128.53107009907643 128.53107009907643 0 0 0 46.0690901640336,9.853867839751786 L 45.979814054872236,10.849874755557579 A 129.53107009907643 129.53107009907643 0 0 1 24.018736134675446,6.953439040707552 Z M 65.37049205975298,11.130432467498764 L 65.3100691199522,10.132259602537061 A 128.53107009907643 128.53107009907643 0 0 0 87.20434096078097,6.897981380311758 L 86.51204538752172,3.978952973590499 L 94.13078983867378,5.7691297771603915 L 88.12740172512663,10.790019255940104 L 87.43510615186739,7.8709908492188445 A 129.53107009907643 129.53107009907643 0 0 1 65.37049205975298,11.130432467498764"/><text text-anchor="middle" pointer-events="none" font-size="8px" fill="#000000" x="55.67712881688933" y="13.853599469058963" transform="rotate(180 55.67712881688933 10.853599469058963)" font-family="sans-serif">trek</text></g><g class="relationship" transform="translate(-66.52699333456403 176.5813063121616) rotate(407.29125036323126)"><path class="outline" fill="#A5ABB6" stroke="none" d="M 25 0.5 L 48.42819245252961 0.5 L 48.42819245252961 -0.5 L 25 -0.5 Z M 67.7641299525296 0.5 L 91.19232240505922 0.5 L 91.19232240505922 3.5 L 98.19232240505922 0 L 91.19232240505922 -3.5 L 91.19232240505922 -0.5 L 67.7641299525296 -0.5 Z"/><text text-anchor="middle" pointer-events="none" font-size="8px" fill="#000000" x="58.09616120252961" y="3" font-family="sans-serif">trek</text></g><g class="relationship" transform="translate(17.03089610849817 267.10438299083535) rotate(343.39381183994897)"><path class="outline" fill="#A5ABB6" stroke="none" d="M 25 0.5 L 47.34409041524851 0.5 L 47.34409041524851 -0.5 L 25 -0.5 Z M 66.6800279152485 0.5 L 89.02411833049702 0.5 L 89.02411833049702 3.5 L 96.02411833049702 0 L 89.02411833049702 -3.5 L 89.02411833049702 -0.5 L 66.6800279152485 -0.5 Z"/><text text-anchor="middle" pointer-events="none" font-size="8px" fill="#000000" x="57.01205916524851" y="3" font-family="sans-serif">trek</text></g></g><g class="layer nodes"><g class="node" transform="translate(98.66648573204289,-86.90593991993724)"><circle class="outline" cx="0" cy="0" r="25" fill="#F79767" stroke="#f36924" stroke-width="2px"/><text text-anchor="middle" pointer-events="none" font-family="sans-serif" dy="1.5625" font-size="25" fill="#FFFFFF"/><text text-anchor="middle" pointer-events="none" x="0" y="5" font-size="10px" fill="#FFFFFF" font-family="sans-serif"> Darjeeling</text></g><g class="node" transform="translate(133.0073058329133,232.5166741174692)"><circle class="outline" cx="0" cy="0" r="25" fill="#57C7E3" stroke="#23b3d7" stroke-width="2px"/><text text-anchor="middle" pointer-events="none" font-family="sans-serif" dy="1.5625" font-size="25" fill="#2A2C34"/><text text-anchor="middle" pointer-events="none" x="0" y="5" font-size="10px" fill="#2A2C34" font-family="sans-serif"> Sandak…</text></g><g class="node" transform="translate(196.42079518977636,-40.87735299240386)"><circle class="outline" cx="0" cy="0" r="25" fill="#F16667" stroke="#eb2728" stroke-width="2px"/><text text-anchor="middle" pointer-events="none" font-family="sans-serif" dy="1.5625" font-size="25" fill="#FFFFFF"/><text text-anchor="middle" pointer-events="none" x="0" y="5" font-size="10px" fill="#FFFFFF" font-family="sans-serif"> Tumbling</text></g><g class="node" transform="translate(268.8343312461554,46.771625624401025)"><circle class="outline" cx="0" cy="0" r="25" fill="#F16667" stroke="#eb2728" stroke-width="2px"/><text text-anchor="middle" pointer-events="none" font-family="sans-serif" dy="1.5625" font-size="25" fill="#FFFFFF"/><text text-anchor="middle" pointer-events="none" x="0" y="5" font-size="10px" fill="#FFFFFF" font-family="sans-serif"> Gairibus</text></g><g class="node" transform="translate(182.8635194199886,121.67728843236767)"><circle class="outline" cx="0" cy="0" r="25" fill="#F16667" stroke="#eb2728" stroke-width="2px"/><text text-anchor="middle" pointer-events="none" font-family="sans-serif" dy="1.5625" font-size="25" fill="#FFFFFF"/><text text-anchor="middle" pointer-events="none" x="0" y="5" font-size="10px" fill="#FFFFFF" font-family="sans-serif"> BhikeBh…</text></g><g class="node" transform="translate(102.26094524135395,24.75413399838209)"><circle class="outline" cx="0" cy="0" r="25" fill="#F79767" stroke="#f36924" stroke-width="2px"/><text text-anchor="middle" pointer-events="none" font-family="sans-serif" dy="1.5625" font-size="25" fill="#FFFFFF"/><text text-anchor="middle" pointer-events="none" x="0" y="5" font-size="10px" fill="#FFFFFF" font-family="sans-serif"> Rimbik</text></g><g class="node" transform="translate(-12.172688823230143,71.33188916511669)"><circle class="outline" cx="0" cy="0" r="25" fill="#F16667" stroke="#eb2728" stroke-width="2px"/><text text-anchor="middle" pointer-events="none" font-family="sans-serif" dy="1.5625" font-size="25" fill="#FFFFFF"/><text text-anchor="middle" pointer-events="none" x="0" y="5" font-size="10px" fill="#FFFFFF" font-family="sans-serif"> Sirikhola</text></g><g class="node" transform="translate(37.32352597221946,170.37547889700951)"><circle class="outline" cx="0" cy="0" r="25" fill="#F16667" stroke="#eb2728" stroke-width="2px"/><text text-anchor="middle" pointer-events="none" font-family="sans-serif" dy="1.5625" font-size="25" fill="#FFFFFF"/><text text-anchor="middle" pointer-events="none" x="0" y="5" font-size="10px" fill="#FFFFFF" font-family="sans-serif"> Gurdum</text></g><g class="node" transform="translate(-66.52699333456403,176.5813063121616)"><circle class="outline" cx="0" cy="0" r="25" fill="#F16667" stroke="#eb2728" stroke-width="2px"/><text text-anchor="middle" pointer-events="none" font-family="sans-serif" dy="1.5625" font-size="25" fill="#FFFFFF"/><text text-anchor="middle" pointer-events="none" x="0" y="5" font-size="10px" fill="#FFFFFF" font-family="sans-serif"> Rammam</text></g><g class="node" transform="translate(17.03089610849817,267.10438299083535)"><circle class="outline" cx="0" cy="0" r="25" fill="#57C7E3" stroke="#23b3d7" stroke-width="2px"/><text text-anchor="middle" pointer-events="none" font-family="sans-serif" dy="1.5625" font-size="25" fill="#2A2C34"/><text text-anchor="middle" pointer-events="none" x="0" y="5" font-size="10px" fill="#2A2C34" font-family="sans-serif"> Sabargr…</text></g></g></svg>