<svg xmlns="http://www.w3.org/2000/svg" width="160.0323944091797" height="242.6939697265625" viewBox="0.9111614227294922 -20.968677520751953 160.0323944091797 242.6939697265625"><title>Neo4j Graph Visualization</title><desc>Created using Neo4j (http://www.neo4j.com/)</desc><g class="layer relationships"><g class="relationship" transform="translate(131.94355446813788 8.031323201365028) rotate(519.4681304065439)"><path class="outline" fill="#A5ABB6" stroke="none" d="M 21.40063509461097,12.933012701892217 L 21.90063509461097,12.06698729810778 A 59.92678616880728 59.92678616880728 0 0 0 40.49801460324645,19.00791497321667 L 40.30834960863534,19.98976383623947 A 60.92678616880728 60.92678616880728 0 0 1 21.40063509461097,12.933012701892217 Z M 59.71198822775314,20.5880934921866 L 59.583178544160205,19.59642415948911 A 59.92678616880728 59.92678616880728 0 0 0 78.57287837272148,13.814529833193667 L 77.23580432447513,11.128969744589037 L 85.06203092084,11.142283735386284 L 80.35564377038328,17.39527661799984 L 79.01856972213693,14.709716529395212 A 60.92678616880728 60.92678616880728 0 0 1 59.71198822775314,20.5880934921866"/><text text-anchor="middle" pointer-events="none" font-size="8px" fill="#000000" x="50.001595984041764" y="23.566946166014596" transform="rotate(180 50.001595984041764 20.566946166014596)" font-family="sans-serif">trek</text></g><g class="relationship" transform="translate(31.326848419974723 45.71417080032755) rotate(450.76016414948674)"><path class="outline" fill="#A5ABB6" stroke="none" d="M 25 0.5 L 40.18580863584978 0.5 L 40.18580863584978 -0.5 L 25 -0.5 Z M 59.52174613584978 0.5 L 74.70755477169956 0.5 L 74.70755477169956 3.5 L 81.70755477169956 0 L 74.70755477169956 -3.5 L 74.70755477169956 -0.5 L 59.52174613584978 -0.5 Z"/><text text-anchor="middle" pointer-events="none" font-size="8px" fill="#000000" x="49.85377738584978" y="3" transform="rotate(180 49.85377738584978 0)" font-family="sans-serif">trek</text></g><g class="relationship" transform="translate(29.911161634057656 152.4123342160089) rotate(382.04091073008385)"><path class="outline" fill="#A5ABB6" stroke="none" d="M 25 0.5 L 40.544176898953474 0.5 L 40.544176898953474 -0.5 L 25 -0.5 Z M 59.880114398953474 0.5 L 75.42429129790695 0.5 L 75.42429129790695 3.5 L 82.42429129790695 0 L 75.42429129790695 -3.5 L 75.42429129790695 -0.5 L 59.880114398953474 -0.5 Z"/><text text-anchor="middle" pointer-events="none" font-size="8px" fill="#000000" x="50.212145648953474" y="3" font-family="sans-serif">trek</text></g><g class="relationship" transform="translate(131.94355446813788 8.031323201365028) rotate(519.4681304065439)"><path class="outline" fill="#A5ABB6" stroke="none" d="M 25 0.5 L 39.21498978793931 0.5 L 39.21498978793931 -0.5 L 25 -0.5 Z M 61.22670853793931 0.5 L 75.44169832587862 0.5 L 75.44169832587862 3.5 L 82.44169832587862 0 L 75.44169832587862 -3.5 L 75.44169832587862 -0.5 L 61.22670853793931 -0.5 Z"/><text text-anchor="middle" pointer-events="none" font-size="8px" fill="#000000" x="50.22084916293931" y="3" transform="rotate(180 50.22084916293931 0)" font-family="sans-serif">road</text></g><g class="relationship selected" transform="translate(131.94355446813788 8.031323201365028) rotate(519.4681304065439)"><path class="outline" fill="#A5ABB6" stroke="none" d="M 21.40063509461097,-12.933012701892217 L 21.90063509461097,-12.06698729810778 A 59.92678616880728 59.92678616880728 0 0 1 23.46314619455525,-12.938268361435348 L 22.989219862105898,-13.818832857319158 A 60.92678616880728 60.92678616880728 0 0 0 21.40063509461097,-12.933012701892217 Z M 77.37842479691318,-15.495975733182547 L 76.95965337924466,-14.58788405293 A 59.92678616880728 59.92678616880728 0 0 1 78.57287837272148,-13.814529833193667 L 77.23580432447513,-11.128969744589037 L 85.06203092084,-11.142283735386284 L 80.35564377038328,-17.39527661799984 L 79.01856972213693,-14.709716529395212 A 60.92678616880728 60.92678616880728 0 0 0 77.37842479691318,-15.495975733182547"/><text text-anchor="middle" pointer-events="none" font-size="8px" fill="#000000" x="50.001595984041764" y="-17.566946166014596" transform="rotate(180 50.001595984041764 -20.566946166014596)" font-family="sans-serif">PublicTrans…</text></g></g><g class="layer nodes"><g class="node" transform="translate(131.94355446813788,8.031323201365028)"><circle class="outline" cx="0" cy="0" r="25" fill="#F79767" stroke="#f36924" stroke-width="2px"/><text text-anchor="middle" pointer-events="none" font-family="sans-serif" dy="1.5625" font-size="25" fill="#FFFFFF"/><text text-anchor="middle" pointer-events="none" x="0" y="5" font-size="10px" fill="#FFFFFF" font-family="sans-serif"> Darjeeling</text></g><g class="node" transform="translate(129.48447096248697,192.72529032496348)"><circle class="outline" cx="0" cy="0" r="25" fill="#57C7E3" stroke="#23b3d7" stroke-width="2px"/><text text-anchor="middle" pointer-events="none" font-family="sans-serif" dy="1.5625" font-size="25" fill="#2A2C34"/><text text-anchor="middle" pointer-events="none" x="0" y="5" font-size="10px" fill="#2A2C34" font-family="sans-serif"> Sandak…</text></g><g class="node" transform="translate(31.326848419974723,45.71417080032755)"><circle class="outline" cx="0" cy="0" r="25" fill="#F79767" stroke="#f36924" stroke-width="2px"/><text text-anchor="middle" pointer-events="none" font-family="sans-serif" dy="1.5625" font-size="25" fill="#FFFFFF"/><text text-anchor="middle" pointer-events="none" x="0" y="5" font-size="10px" fill="#FFFFFF" font-family="sans-serif"> Rimbik</text></g><g class="node" transform="translate(29.911161634057656,152.4123342160089)"><circle class="outline" cx="0" cy="0" r="25" fill="#F16667" stroke="#eb2728" stroke-width="2px"/><text text-anchor="middle" pointer-events="none" font-family="sans-serif" dy="1.5625" font-size="25" fill="#FFFFFF"/><text text-anchor="middle" pointer-events="none" x="0" y="5" font-size="10px" fill="#FFFFFF" font-family="sans-serif"> BhikeBh…</text></g></g></svg>